<?xml version="1.0" encoding="UTF-8"?><svg id="_レイヤー_2" xmlns="http://www.w3.org/2000/svg" xmlns:xlink="http://www.w3.org/1999/xlink" viewBox="0 0 88 88"><defs><style>.cls-1{clip-path:url(#clippath);}.cls-2{fill:none;}.cls-2,.cls-3{stroke-width:0px;}.cls-3{fill:#003856;}</style><clipPath id="clippath"><rect class="cls-2" width="88" height="88"/></clipPath></defs><g id="_レイアウト"><g class="cls-1"><path class="cls-3" d="M80.0307,18.78338l2.77783-2.77789-8.31909-1.98401,1.98413,8.31915,2.6582-2.6582c11.75879,17.00201,9.73047,39.79968-4.95947,54.48969-14.86719,14.86719-38.04248,16.77637-55.10645,4.5376l-.72852,1.01562c7.74072,5.55176,16.70215,8.2749,25.61572,8.2749,11.31104,0,22.54541-4.38623,31.10303-12.94434,15.17358-15.17358,17.22339-38.75323,4.97461-56.27252Z"/><path class="cls-3" d="M9.20819,68.85394C-2.89581,52.01501-1.02252,28.4392,13.70844,13.70824,28.61322-1.19703,52.5766-2.94801,69.45209,9.63256l.74707-1.00195C52.831-4.3191,28.16547-2.51588,12.82465,12.82446-2.38531,28.03429-4.27887,52.40722,8.31195,69.75005l-2.8396,2.83972,8.31909,1.98401-1.98389-8.31915-2.59937,2.5993Z"/></g></g></svg>